<svg xmlns="http://www.w3.org/2000/svg" xmlns:xlink="http://www.w3.org/1999/xlink" width="500" zoomAndPan="magnify" viewBox="0 0 375 374.999991" height="500" preserveAspectRatio="xMidYMid meet" version="1.0"><defs><g/><clipPath id="159cc0fcae"><path d="M 70.347656 53.964844 L 304.347656 53.964844 L 304.347656 287.964844 L 70.347656 287.964844 Z M 70.347656 53.964844 " clip-rule="nonzero"/></clipPath><clipPath id="18264a4b33"><path d="M 22.089844 5.703125 L 352.648438 5.703125 L 352.648438 336.261719 L 22.089844 336.261719 Z M 22.089844 5.703125 " clip-rule="nonzero"/></clipPath><clipPath id="af021bb4c3"><path d="M 22.785156 6.402344 L 352.785156 6.402344 L 352.785156 336.402344 L 22.785156 336.402344 Z M 22.785156 6.402344 " clip-rule="nonzero"/></clipPath><clipPath id="34e52f7319"><path d="M 187.785156 6.402344 L 352.785156 171.402344 L 187.785156 336.402344 L 22.785156 171.402344 L 187.785156 6.402344 " clip-rule="nonzero"/></clipPath><clipPath id="b0b72d4597"><path d="M 22.785156 6.402344 L 352.785156 6.402344 L 352.785156 336.402344 L 22.785156 336.402344 Z M 22.785156 6.402344 " clip-rule="nonzero"/></clipPath><clipPath id="9b1ad9f39e"><path d="M 187.785156 6.402344 L 240.289062 118.898438 L 352.785156 171.402344 L 240.289062 223.902344 L 187.785156 336.402344 L 135.28125 223.902344 L 22.785156 171.402344 L 135.28125 118.898438 L 187.785156 6.402344 " clip-rule="nonzero"/></clipPath></defs><g clip-path="url(#159cc0fcae)"><path fill="#cad9d2" d="M 187.347656 53.964844 C 122.730469 53.964844 70.347656 106.347656 70.347656 170.964844 C 70.347656 235.582031 122.730469 287.964844 187.347656 287.964844 C 251.964844 287.964844 304.347656 235.582031 304.347656 170.964844 C 304.347656 106.347656 251.964844 53.964844 187.347656 53.964844 " fill-opacity="1" fill-rule="nonzero"/></g><g clip-path="url(#18264a4b33)"><path fill="#cad9d2" d="M 187.367188 336.261719 C 143.242188 336.261719 101.6875 319.085938 70.507812 287.84375 C 39.265625 256.664062 22.089844 215.109375 22.089844 170.984375 C 22.089844 126.855469 39.265625 85.304688 70.507812 54.125 C 101.6875 22.878906 143.242188 5.703125 187.367188 5.703125 C 231.496094 5.703125 273.046875 22.878906 304.226562 54.125 C 335.472656 85.371094 352.648438 126.855469 352.648438 170.984375 C 352.648438 215.109375 335.472656 256.664062 304.226562 287.84375 C 273.046875 319.085938 231.496094 336.261719 187.367188 336.261719 Z M 187.367188 15.613281 C 145.882812 15.613281 106.84375 31.796875 77.511719 61.128906 C 48.183594 90.457031 31.996094 129.5 31.996094 170.984375 C 31.996094 212.46875 48.183594 251.507812 77.511719 280.839844 C 106.84375 310.167969 145.882812 326.355469 187.367188 326.355469 C 228.851562 326.355469 267.894531 310.167969 297.222656 280.839844 C 326.554688 251.507812 342.738281 212.46875 342.738281 170.984375 C 342.738281 129.5 326.554688 90.457031 297.222656 61.128906 C 267.894531 31.796875 228.851562 15.613281 187.367188 15.613281 Z M 187.367188 15.613281 " fill-opacity="1" fill-rule="nonzero"/></g><g clip-path="url(#af021bb4c3)"><g clip-path="url(#34e52f7319)"><path stroke-linecap="butt" transform="matrix(0.749734, 0, 0, 0.749734, 22.785404, 6.401455)" fill="none" stroke-linejoin="miter" d="M 220.077813 0.00118475 L 440.155957 220.079329 L 220.077813 440.157473 L -0.000330509 220.079329 L 220.077813 0.00118475 " stroke="#000000" stroke-width="2" stroke-opacity="1" stroke-miterlimit="4"/></g></g><g clip-path="url(#b0b72d4597)"><g clip-path="url(#9b1ad9f39e)"><path stroke-linecap="butt" transform="matrix(0.749734, 0, 0, 0.749734, 22.785404, 6.401455)" fill="none" stroke-linejoin="miter" d="M 220.077813 0.00118475 L 290.107888 150.049255 L 440.155957 220.079329 L 290.107888 290.104193 L 220.077813 440.157473 L 150.047739 290.104193 L -0.000330509 220.079329 L 150.047739 150.049255 L 220.077813 0.00118475 " stroke="#000000" stroke-width="2" stroke-opacity="1" stroke-miterlimit="4"/></g></g><g fill="#000000" fill-opacity="1"><g transform="translate(105.075607, 177.78731)"><g><path d="M 34.546875 1.046875 C 25.515625 1.046875 17.90625 -1.398438 11.71875 -6.296875 C 5.539062 -11.191406 2.453125 -18.21875 2.453125 -27.375 C 2.453125 -32.738281 3.472656 -37.519531 5.515625 -41.71875 C 7.554688 -45.914062 10.238281 -49.210938 13.5625 -51.609375 C 20.257812 -56.503906 27.78125 -58.953125 36.125 -58.953125 C 40.96875 -58.953125 46.007812 -58.078125 51.25 -56.328125 L 50.375 -50.375 C 47.632812 -51.539062 45.507812 -52.414062 44 -53 C 39.625 -54.582031 35.21875 -55.375 30.78125 -55.375 C 24.664062 -53.96875 19.957031 -50.929688 16.65625 -46.265625 C 13.363281 -41.609375 11.71875 -35.78125 11.71875 -28.78125 C 11.71875 -20.207031 13.960938 -13.601562 18.453125 -8.96875 C 22.941406 -4.332031 28.859375 -2.015625 36.203125 -2.015625 C 43.554688 -2.015625 49.039062 -3.585938 52.65625 -6.734375 L 52.65625 -1.921875 C 47.644531 0.0546875 41.609375 1.046875 34.546875 1.046875 Z M 34.546875 1.046875 "/></g></g></g><g fill="#000000" fill-opacity="1"><g transform="translate(160.345709, 177.78731)"><g><path d="M 34.546875 1.046875 C 25.515625 1.046875 17.90625 -1.398438 11.71875 -6.296875 C 5.539062 -11.191406 2.453125 -18.21875 2.453125 -27.375 C 2.453125 -32.738281 3.472656 -37.519531 5.515625 -41.71875 C 7.554688 -45.914062 10.238281 -49.210938 13.5625 -51.609375 C 20.257812 -56.503906 27.78125 -58.953125 36.125 -58.953125 C 40.96875 -58.953125 46.007812 -58.078125 51.25 -56.328125 L 50.375 -50.375 C 47.632812 -51.539062 45.507812 -52.414062 44 -53 C 39.625 -54.582031 35.21875 -55.375 30.78125 -55.375 C 24.664062 -53.96875 19.957031 -50.929688 16.65625 -46.265625 C 13.363281 -41.609375 11.71875 -35.78125 11.71875 -28.78125 C 11.71875 -20.207031 13.960938 -13.601562 18.453125 -8.96875 C 22.941406 -4.332031 28.859375 -2.015625 36.203125 -2.015625 C 43.554688 -2.015625 49.039062 -3.585938 52.65625 -6.734375 L 52.65625 -1.921875 C 47.644531 0.0546875 41.609375 1.046875 34.546875 1.046875 Z M 34.546875 1.046875 "/></g></g></g><g fill="#000000" fill-opacity="1"><g transform="translate(215.615812, 177.78731)"><g><path d="M 0.875 0 L 26.859375 -59.296875 L 28.171875 -59.296875 L 54.140625 0 L 44.609375 0 L 38.046875 -15.75 L 12.078125 -15.75 L 5.59375 0 Z M 13.375 -19.0625 L 36.65625 -19.0625 L 25.109375 -47.40625 Z M 13.375 -19.0625 "/></g></g></g><g fill="#000000" fill-opacity="1"><g transform="translate(62.328531, 362.704651)"><g><path d="M 10.671875 0.28125 C 8.867188 0.28125 7.28125 -0.09375 5.90625 -0.84375 C 4.539062 -1.59375 3.46875 -2.71875 2.6875 -4.21875 C 1.914062 -5.71875 1.53125 -7.566406 1.53125 -9.765625 C 1.53125 -11.960938 1.914062 -13.8125 2.6875 -15.3125 C 3.46875 -16.8125 4.539062 -17.9375 5.90625 -18.6875 C 7.28125 -19.4375 8.867188 -19.8125 10.671875 -19.8125 C 12.554688 -19.8125 14.15625 -19.441406 15.46875 -18.703125 C 16.78125 -17.972656 17.71875 -16.851562 18.28125 -15.34375 L 15.453125 -13.625 L 15.125 -13.640625 C 14.707031 -14.648438 14.140625 -15.375 13.421875 -15.8125 C 12.703125 -16.257812 11.785156 -16.484375 10.671875 -16.484375 C 9.054688 -16.484375 7.789062 -15.945312 6.875 -14.875 C 5.96875 -13.800781 5.515625 -12.097656 5.515625 -9.765625 C 5.515625 -7.441406 5.96875 -5.742188 6.875 -4.671875 C 7.789062 -3.597656 9.054688 -3.0625 10.671875 -3.0625 C 13.210938 -3.0625 14.769531 -4.296875 15.34375 -6.765625 L 15.671875 -6.765625 L 18.515625 -5.28125 C 17.984375 -3.425781 17.070312 -2.035156 15.78125 -1.109375 C 14.488281 -0.179688 12.785156 0.28125 10.671875 0.28125 Z M 10.671875 0.28125 "/></g></g></g><g fill="#000000" fill-opacity="1"><g transform="translate(81.481341, 362.704651)"><g><path d="M 8.5625 0.28125 C 7.125 0.28125 5.859375 -0.015625 4.765625 -0.609375 C 3.671875 -1.203125 2.820312 -2.066406 2.21875 -3.203125 C 1.625 -4.347656 1.328125 -5.734375 1.328125 -7.359375 C 1.328125 -8.984375 1.625 -10.367188 2.21875 -11.515625 C 2.820312 -12.660156 3.671875 -13.53125 4.765625 -14.125 C 5.859375 -14.71875 7.125 -15.015625 8.5625 -15.015625 C 10.007812 -15.015625 11.273438 -14.71875 12.359375 -14.125 C 13.453125 -13.53125 14.300781 -12.660156 14.90625 -11.515625 C 15.507812 -10.367188 15.8125 -8.984375 15.8125 -7.359375 C 15.8125 -5.734375 15.507812 -4.347656 14.90625 -3.203125 C 14.300781 -2.066406 13.453125 -1.203125 12.359375 -0.609375 C 11.273438 -0.015625 10.007812 0.28125 8.5625 0.28125 Z M 8.5625 -2.859375 C 10.851562 -2.859375 12 -4.359375 12 -7.359375 C 12 -8.921875 11.703125 -10.0625 11.109375 -10.78125 C 10.523438 -11.507812 9.675781 -11.875 8.5625 -11.875 C 6.269531 -11.875 5.125 -10.367188 5.125 -7.359375 C 5.125 -4.359375 6.269531 -2.859375 8.5625 -2.859375 Z M 8.5625 -2.859375 "/></g></g></g><g fill="#000000" fill-opacity="1"><g transform="translate(98.604007, 362.704651)"><g><path d="M 6.125 0.28125 C 4.789062 0.28125 3.773438 -0.078125 3.078125 -0.796875 C 2.378906 -1.515625 2.03125 -2.601562 2.03125 -4.0625 L 2.03125 -20.65625 L 5.734375 -20.65625 L 5.734375 -4.203125 C 5.734375 -3.304688 6.109375 -2.859375 6.859375 -2.859375 C 7.066406 -2.859375 7.289062 -2.894531 7.53125 -2.96875 L 7.71875 -2.90625 L 8.0625 -0.0625 C 7.851562 0.0390625 7.578125 0.125 7.234375 0.1875 C 6.898438 0.25 6.53125 0.28125 6.125 0.28125 Z M 6.125 0.28125 "/></g></g></g><g fill="#000000" fill-opacity="1"><g transform="translate(107.071846, 362.704651)"><g><path d="M 7.28125 0.28125 C 6.113281 0.28125 5.082031 0 4.1875 -0.5625 C 3.289062 -1.132812 2.585938 -1.988281 2.078125 -3.125 C 1.578125 -4.269531 1.328125 -5.679688 1.328125 -7.359375 C 1.328125 -9.046875 1.585938 -10.457031 2.109375 -11.59375 C 2.628906 -12.738281 3.347656 -13.59375 4.265625 -14.15625 C 5.191406 -14.726562 6.257812 -15.015625 7.46875 -15.015625 C 8.382812 -15.015625 9.175781 -14.851562 9.84375 -14.53125 C 10.519531 -14.21875 11.09375 -13.726562 11.5625 -13.0625 L 11.84375 -13.125 L 11.84375 -20.65625 L 15.53125 -20.65625 L 15.53125 0 L 11.84375 0 L 11.84375 -1.90625 L 11.5625 -1.96875 C 11.144531 -1.269531 10.578125 -0.71875 9.859375 -0.3125 C 9.148438 0.0820312 8.289062 0.28125 7.28125 0.28125 Z M 8.484375 -2.859375 C 9.523438 -2.859375 10.347656 -3.226562 10.953125 -3.96875 C 11.554688 -4.71875 11.859375 -5.847656 11.859375 -7.359375 C 11.859375 -8.867188 11.554688 -10 10.953125 -10.75 C 10.347656 -11.5 9.523438 -11.875 8.484375 -11.875 C 7.398438 -11.875 6.566406 -11.507812 5.984375 -10.78125 C 5.410156 -10.0625 5.125 -8.921875 5.125 -7.359375 C 5.125 -5.804688 5.410156 -4.664062 5.984375 -3.9375 C 6.566406 -3.21875 7.398438 -2.859375 8.484375 -2.859375 Z M 8.484375 -2.859375 "/></g></g></g><g fill="#000000" fill-opacity="1"><g transform="translate(124.72876, 362.704651)"><g/></g></g><g fill="#000000" fill-opacity="1"><g transform="translate(131.179818, 362.704651)"><g><path d="M 10.671875 0.28125 C 8.867188 0.28125 7.28125 -0.09375 5.90625 -0.84375 C 4.539062 -1.59375 3.46875 -2.71875 2.6875 -4.21875 C 1.914062 -5.71875 1.53125 -7.566406 1.53125 -9.765625 C 1.53125 -11.960938 1.914062 -13.8125 2.6875 -15.3125 C 3.46875 -16.8125 4.539062 -17.9375 5.90625 -18.6875 C 7.28125 -19.4375 8.867188 -19.8125 10.671875 -19.8125 C 12.554688 -19.8125 14.15625 -19.441406 15.46875 -18.703125 C 16.78125 -17.972656 17.71875 -16.851562 18.28125 -15.34375 L 15.453125 -13.625 L 15.125 -13.640625 C 14.707031 -14.648438 14.140625 -15.375 13.421875 -15.8125 C 12.703125 -16.257812 11.785156 -16.484375 10.671875 -16.484375 C 9.054688 -16.484375 7.789062 -15.945312 6.875 -14.875 C 5.96875 -13.800781 5.515625 -12.097656 5.515625 -9.765625 C 5.515625 -7.441406 5.96875 -5.742188 6.875 -4.671875 C 7.789062 -3.597656 9.054688 -3.0625 10.671875 -3.0625 C 13.210938 -3.0625 14.769531 -4.296875 15.34375 -6.765625 L 15.671875 -6.765625 L 18.515625 -5.28125 C 17.984375 -3.425781 17.070312 -2.035156 15.78125 -1.109375 C 14.488281 -0.179688 12.785156 0.28125 10.671875 0.28125 Z M 10.671875 0.28125 "/></g></g></g><g fill="#000000" fill-opacity="1"><g transform="translate(150.332628, 362.704651)"><g><path d="M 5.75 0.28125 C 4.800781 0.28125 3.976562 0.109375 3.28125 -0.234375 C 2.59375 -0.585938 2.0625 -1.097656 1.6875 -1.765625 C 1.3125 -2.441406 1.125 -3.25 1.125 -4.1875 C 1.125 -5.0625 1.3125 -5.796875 1.6875 -6.390625 C 2.0625 -6.984375 2.640625 -7.46875 3.421875 -7.84375 C 4.203125 -8.226562 5.226562 -8.519531 6.5 -8.71875 C 7.375 -8.863281 8.039062 -9.019531 8.5 -9.1875 C 8.957031 -9.351562 9.265625 -9.546875 9.421875 -9.765625 C 9.585938 -9.984375 9.671875 -10.253906 9.671875 -10.578125 C 9.671875 -11.046875 9.503906 -11.40625 9.171875 -11.65625 C 8.847656 -11.90625 8.300781 -12.03125 7.53125 -12.03125 C 6.71875 -12.03125 5.941406 -11.847656 5.203125 -11.484375 C 4.460938 -11.117188 3.816406 -10.640625 3.265625 -10.046875 L 3 -10.046875 L 1.453125 -12.390625 C 2.203125 -13.210938 3.113281 -13.851562 4.1875 -14.3125 C 5.269531 -14.78125 6.445312 -15.015625 7.71875 -15.015625 C 9.664062 -15.015625 11.078125 -14.597656 11.953125 -13.765625 C 12.828125 -12.941406 13.265625 -11.769531 13.265625 -10.25 L 13.265625 -3.84375 C 13.265625 -3.1875 13.554688 -2.859375 14.140625 -2.859375 C 14.359375 -2.859375 14.570312 -2.898438 14.78125 -2.984375 L 14.96875 -2.921875 L 15.25 -0.34375 C 15.039062 -0.207031 14.753906 -0.0976562 14.390625 -0.015625 C 14.023438 0.0664062 13.625 0.109375 13.1875 0.109375 C 12.300781 0.109375 11.609375 -0.0546875 11.109375 -0.390625 C 10.617188 -0.734375 10.269531 -1.265625 10.0625 -1.984375 L 9.78125 -2.015625 C 9.0625 -0.484375 7.71875 0.28125 5.75 0.28125 Z M 6.921875 -2.484375 C 7.773438 -2.484375 8.457031 -2.769531 8.96875 -3.34375 C 9.476562 -3.914062 9.734375 -4.71875 9.734375 -5.75 L 9.734375 -7.234375 L 9.484375 -7.296875 C 9.265625 -7.117188 8.972656 -6.96875 8.609375 -6.84375 C 8.242188 -6.726562 7.722656 -6.613281 7.046875 -6.5 C 6.242188 -6.363281 5.664062 -6.128906 5.3125 -5.796875 C 4.96875 -5.472656 4.796875 -5.015625 4.796875 -4.421875 C 4.796875 -3.785156 4.984375 -3.300781 5.359375 -2.96875 C 5.734375 -2.644531 6.253906 -2.484375 6.921875 -2.484375 Z M 6.921875 -2.484375 "/></g></g></g><g fill="#000000" fill-opacity="1"><g transform="translate(165.865911, 362.704651)"><g><path d="M 6.125 0.28125 C 4.789062 0.28125 3.773438 -0.078125 3.078125 -0.796875 C 2.378906 -1.515625 2.03125 -2.601562 2.03125 -4.0625 L 2.03125 -20.65625 L 5.734375 -20.65625 L 5.734375 -4.203125 C 5.734375 -3.304688 6.109375 -2.859375 6.859375 -2.859375 C 7.066406 -2.859375 7.289062 -2.894531 7.53125 -2.96875 L 7.71875 -2.90625 L 8.0625 -0.0625 C 7.851562 0.0390625 7.578125 0.125 7.234375 0.1875 C 6.898438 0.25 6.53125 0.28125 6.125 0.28125 Z M 6.125 0.28125 "/></g></g></g><g fill="#000000" fill-opacity="1"><g transform="translate(174.33375, 362.704651)"><g><path d="M 6.125 0.28125 C 4.789062 0.28125 3.773438 -0.078125 3.078125 -0.796875 C 2.378906 -1.515625 2.03125 -2.601562 2.03125 -4.0625 L 2.03125 -20.65625 L 5.734375 -20.65625 L 5.734375 -4.203125 C 5.734375 -3.304688 6.109375 -2.859375 6.859375 -2.859375 C 7.066406 -2.859375 7.289062 -2.894531 7.53125 -2.96875 L 7.71875 -2.90625 L 8.0625 -0.0625 C 7.851562 0.0390625 7.578125 0.125 7.234375 0.1875 C 6.898438 0.25 6.53125 0.28125 6.125 0.28125 Z M 6.125 0.28125 "/></g></g></g><g fill="#000000" fill-opacity="1"><g transform="translate(182.801589, 362.704651)"><g/></g></g><g fill="#000000" fill-opacity="1"><g transform="translate(189.252647, 362.704651)"><g><path d="M 18.75 0 L 14.6875 0 L 13.21875 -4.5 L 5.734375 -4.5 L 4.265625 0 L 0.296875 0 L 7.046875 -19.53125 L 12 -19.53125 Z M 9.28125 -15.453125 L 6.765625 -7.75 L 12.140625 -7.75 L 9.625 -15.453125 Z M 9.28125 -15.453125 "/></g></g></g><g fill="#000000" fill-opacity="1"><g transform="translate(208.285258, 362.704651)"><g><path d="M 6.890625 0.28125 C 5.890625 0.28125 4.96875 0.164062 4.125 -0.0625 C 3.289062 -0.300781 2.578125 -0.628906 1.984375 -1.046875 C 1.390625 -1.460938 0.953125 -1.9375 0.671875 -2.46875 L 2.71875 -4.6875 L 3 -4.6875 C 3.488281 -4.03125 4.066406 -3.535156 4.734375 -3.203125 C 5.410156 -2.878906 6.140625 -2.71875 6.921875 -2.71875 C 7.640625 -2.71875 8.179688 -2.84375 8.546875 -3.09375 C 8.910156 -3.351562 9.09375 -3.722656 9.09375 -4.203125 C 9.09375 -4.578125 8.960938 -4.890625 8.703125 -5.140625 C 8.441406 -5.398438 8.015625 -5.601562 7.421875 -5.75 L 5.484375 -6.21875 C 4.015625 -6.5625 2.941406 -7.09375 2.265625 -7.8125 C 1.597656 -8.53125 1.265625 -9.441406 1.265625 -10.546875 C 1.265625 -11.460938 1.5 -12.257812 1.96875 -12.9375 C 2.4375 -13.613281 3.09375 -14.128906 3.9375 -14.484375 C 4.789062 -14.835938 5.785156 -15.015625 6.921875 -15.015625 C 8.242188 -15.015625 9.34375 -14.820312 10.21875 -14.4375 C 11.09375 -14.050781 11.773438 -13.539062 12.265625 -12.90625 L 10.28125 -10.765625 L 10.015625 -10.765625 C 9.609375 -11.234375 9.148438 -11.570312 8.640625 -11.78125 C 8.128906 -12 7.554688 -12.109375 6.921875 -12.109375 C 5.460938 -12.109375 4.734375 -11.648438 4.734375 -10.734375 C 4.734375 -10.359375 4.867188 -10.046875 5.140625 -9.796875 C 5.410156 -9.554688 5.890625 -9.363281 6.578125 -9.21875 L 8.390625 -8.8125 C 9.890625 -8.5 10.984375 -7.988281 11.671875 -7.28125 C 12.359375 -6.570312 12.703125 -5.617188 12.703125 -4.421875 C 12.703125 -3.484375 12.46875 -2.65625 12 -1.9375 C 11.539062 -1.226562 10.875 -0.679688 10 -0.296875 C 9.132812 0.0859375 8.097656 0.28125 6.890625 0.28125 Z M 6.890625 0.28125 "/></g></g></g><g fill="#000000" fill-opacity="1"><g transform="translate(221.868534, 362.704651)"><g><path d="M 6.890625 0.28125 C 5.890625 0.28125 4.96875 0.164062 4.125 -0.0625 C 3.289062 -0.300781 2.578125 -0.628906 1.984375 -1.046875 C 1.390625 -1.460938 0.953125 -1.9375 0.671875 -2.46875 L 2.71875 -4.6875 L 3 -4.6875 C 3.488281 -4.03125 4.066406 -3.535156 4.734375 -3.203125 C 5.410156 -2.878906 6.140625 -2.71875 6.921875 -2.71875 C 7.640625 -2.71875 8.179688 -2.84375 8.546875 -3.09375 C 8.910156 -3.351562 9.09375 -3.722656 9.09375 -4.203125 C 9.09375 -4.578125 8.960938 -4.890625 8.703125 -5.140625 C 8.441406 -5.398438 8.015625 -5.601562 7.421875 -5.75 L 5.484375 -6.21875 C 4.015625 -6.5625 2.941406 -7.09375 2.265625 -7.8125 C 1.597656 -8.53125 1.265625 -9.441406 1.265625 -10.546875 C 1.265625 -11.460938 1.5 -12.257812 1.96875 -12.9375 C 2.4375 -13.613281 3.09375 -14.128906 3.9375 -14.484375 C 4.789062 -14.835938 5.785156 -15.015625 6.921875 -15.015625 C 8.242188 -15.015625 9.34375 -14.820312 10.21875 -14.4375 C 11.09375 -14.050781 11.773438 -13.539062 12.265625 -12.90625 L 10.28125 -10.765625 L 10.015625 -10.765625 C 9.609375 -11.234375 9.148438 -11.570312 8.640625 -11.78125 C 8.128906 -12 7.554688 -12.109375 6.921875 -12.109375 C 5.460938 -12.109375 4.734375 -11.648438 4.734375 -10.734375 C 4.734375 -10.359375 4.867188 -10.046875 5.140625 -9.796875 C 5.410156 -9.554688 5.890625 -9.363281 6.578125 -9.21875 L 8.390625 -8.8125 C 9.890625 -8.5 10.984375 -7.988281 11.671875 -7.28125 C 12.359375 -6.570312 12.703125 -5.617188 12.703125 -4.421875 C 12.703125 -3.484375 12.46875 -2.65625 12 -1.9375 C 11.539062 -1.226562 10.875 -0.679688 10 -0.296875 C 9.132812 0.0859375 8.097656 0.28125 6.890625 0.28125 Z M 6.890625 0.28125 "/></g></g></g><g fill="#000000" fill-opacity="1"><g transform="translate(235.45181, 362.704651)"><g><path d="M 3.96875 -16.5 C 3.300781 -16.5 2.753906 -16.703125 2.328125 -17.109375 C 1.910156 -17.515625 1.703125 -18.035156 1.703125 -18.671875 C 1.703125 -19.304688 1.910156 -19.828125 2.328125 -20.234375 C 2.753906 -20.640625 3.300781 -20.84375 3.96875 -20.84375 C 4.414062 -20.84375 4.8125 -20.75 5.15625 -20.5625 C 5.5 -20.375 5.765625 -20.113281 5.953125 -19.78125 C 6.148438 -19.457031 6.25 -19.085938 6.25 -18.671875 C 6.25 -18.253906 6.148438 -17.878906 5.953125 -17.546875 C 5.765625 -17.222656 5.5 -16.96875 5.15625 -16.78125 C 4.8125 -16.59375 4.414062 -16.5 3.96875 -16.5 Z M 2.125 0 L 2.125 -14.734375 L 5.828125 -14.734375 L 5.828125 0 Z M 2.125 0 "/></g></g></g><g fill="#000000" fill-opacity="1"><g transform="translate(243.385401, 362.704651)"><g><path d="M 6.890625 0.28125 C 5.890625 0.28125 4.96875 0.164062 4.125 -0.0625 C 3.289062 -0.300781 2.578125 -0.628906 1.984375 -1.046875 C 1.390625 -1.460938 0.953125 -1.9375 0.671875 -2.46875 L 2.71875 -4.6875 L 3 -4.6875 C 3.488281 -4.03125 4.066406 -3.535156 4.734375 -3.203125 C 5.410156 -2.878906 6.140625 -2.71875 6.921875 -2.71875 C 7.640625 -2.71875 8.179688 -2.84375 8.546875 -3.09375 C 8.910156 -3.351562 9.09375 -3.722656 9.09375 -4.203125 C 9.09375 -4.578125 8.960938 -4.890625 8.703125 -5.140625 C 8.441406 -5.398438 8.015625 -5.601562 7.421875 -5.75 L 5.484375 -6.21875 C 4.015625 -6.5625 2.941406 -7.09375 2.265625 -7.8125 C 1.597656 -8.53125 1.265625 -9.441406 1.265625 -10.546875 C 1.265625 -11.460938 1.5 -12.257812 1.96875 -12.9375 C 2.4375 -13.613281 3.09375 -14.128906 3.9375 -14.484375 C 4.789062 -14.835938 5.785156 -15.015625 6.921875 -15.015625 C 8.242188 -15.015625 9.34375 -14.820312 10.21875 -14.4375 C 11.09375 -14.050781 11.773438 -13.539062 12.265625 -12.90625 L 10.28125 -10.765625 L 10.015625 -10.765625 C 9.609375 -11.234375 9.148438 -11.570312 8.640625 -11.78125 C 8.128906 -12 7.554688 -12.109375 6.921875 -12.109375 C 5.460938 -12.109375 4.734375 -11.648438 4.734375 -10.734375 C 4.734375 -10.359375 4.867188 -10.046875 5.140625 -9.796875 C 5.410156 -9.554688 5.890625 -9.363281 6.578125 -9.21875 L 8.390625 -8.8125 C 9.890625 -8.5 10.984375 -7.988281 11.671875 -7.28125 C 12.359375 -6.570312 12.703125 -5.617188 12.703125 -4.421875 C 12.703125 -3.484375 12.46875 -2.65625 12 -1.9375 C 11.539062 -1.226562 10.875 -0.679688 10 -0.296875 C 9.132812 0.0859375 8.097656 0.28125 6.890625 0.28125 Z M 6.890625 0.28125 "/></g></g></g><g fill="#000000" fill-opacity="1"><g transform="translate(256.968677, 362.704651)"><g><path d="M 10.171875 -3.515625 L 11.125 -0.78125 C 10.726562 -0.445312 10.222656 -0.1875 9.609375 0 C 9.003906 0.1875 8.320312 0.28125 7.5625 0.28125 C 5.96875 0.28125 4.753906 -0.148438 3.921875 -1.015625 C 3.097656 -1.890625 2.6875 -3.15625 2.6875 -4.8125 L 2.6875 -11.8125 L 0.4375 -11.8125 L 0.4375 -14.75 L 2.6875 -14.75 L 2.6875 -17.625 L 6.390625 -18.21875 L 6.390625 -14.75 L 10.5625 -14.75 L 10.5625 -11.8125 L 6.390625 -11.8125 L 6.390625 -5.078125 C 6.390625 -4.347656 6.539062 -3.816406 6.84375 -3.484375 C 7.144531 -3.148438 7.582031 -2.984375 8.15625 -2.984375 C 8.820312 -2.984375 9.398438 -3.160156 9.890625 -3.515625 Z M 10.171875 -3.515625 "/></g></g></g><g fill="#000000" fill-opacity="1"><g transform="translate(268.414958, 362.704651)"><g><path d="M 5.75 0.28125 C 4.800781 0.28125 3.976562 0.109375 3.28125 -0.234375 C 2.59375 -0.585938 2.0625 -1.097656 1.6875 -1.765625 C 1.3125 -2.441406 1.125 -3.25 1.125 -4.1875 C 1.125 -5.0625 1.3125 -5.796875 1.6875 -6.390625 C 2.0625 -6.984375 2.640625 -7.46875 3.421875 -7.84375 C 4.203125 -8.226562 5.226562 -8.519531 6.5 -8.71875 C 7.375 -8.863281 8.039062 -9.019531 8.5 -9.1875 C 8.957031 -9.351562 9.265625 -9.546875 9.421875 -9.765625 C 9.585938 -9.984375 9.671875 -10.253906 9.671875 -10.578125 C 9.671875 -11.046875 9.503906 -11.40625 9.171875 -11.65625 C 8.847656 -11.90625 8.300781 -12.03125 7.53125 -12.03125 C 6.71875 -12.03125 5.941406 -11.847656 5.203125 -11.484375 C 4.460938 -11.117188 3.816406 -10.640625 3.265625 -10.046875 L 3 -10.046875 L 1.453125 -12.390625 C 2.203125 -13.210938 3.113281 -13.851562 4.1875 -14.3125 C 5.269531 -14.78125 6.445312 -15.015625 7.71875 -15.015625 C 9.664062 -15.015625 11.078125 -14.597656 11.953125 -13.765625 C 12.828125 -12.941406 13.265625 -11.769531 13.265625 -10.25 L 13.265625 -3.84375 C 13.265625 -3.1875 13.554688 -2.859375 14.140625 -2.859375 C 14.359375 -2.859375 14.570312 -2.898438 14.78125 -2.984375 L 14.96875 -2.921875 L 15.25 -0.34375 C 15.039062 -0.207031 14.753906 -0.0976562 14.390625 -0.015625 C 14.023438 0.0664062 13.625 0.109375 13.1875 0.109375 C 12.300781 0.109375 11.609375 -0.0546875 11.109375 -0.390625 C 10.617188 -0.734375 10.269531 -1.265625 10.0625 -1.984375 L 9.78125 -2.015625 C 9.0625 -0.484375 7.71875 0.28125 5.75 0.28125 Z M 6.921875 -2.484375 C 7.773438 -2.484375 8.457031 -2.769531 8.96875 -3.34375 C 9.476562 -3.914062 9.734375 -4.71875 9.734375 -5.75 L 9.734375 -7.234375 L 9.484375 -7.296875 C 9.265625 -7.117188 8.972656 -6.96875 8.609375 -6.84375 C 8.242188 -6.726562 7.722656 -6.613281 7.046875 -6.5 C 6.242188 -6.363281 5.664062 -6.128906 5.3125 -5.796875 C 4.96875 -5.472656 4.796875 -5.015625 4.796875 -4.421875 C 4.796875 -3.785156 4.984375 -3.300781 5.359375 -2.96875 C 5.734375 -2.644531 6.253906 -2.484375 6.921875 -2.484375 Z M 6.921875 -2.484375 "/></g></g></g><g fill="#000000" fill-opacity="1"><g transform="translate(283.948241, 362.704651)"><g><path d="M 2.125 0 L 2.125 -14.734375 L 5.671875 -14.734375 L 5.671875 -12.578125 L 5.953125 -12.5 C 6.867188 -14.175781 8.359375 -15.015625 10.421875 -15.015625 C 12.117188 -15.015625 13.363281 -14.550781 14.15625 -13.625 C 14.957031 -12.695312 15.359375 -11.347656 15.359375 -9.578125 L 15.359375 0 L 11.65625 0 L 11.65625 -9.125 C 11.65625 -10.101562 11.457031 -10.804688 11.0625 -11.234375 C 10.675781 -11.671875 10.050781 -11.890625 9.1875 -11.890625 C 8.125 -11.890625 7.296875 -11.546875 6.703125 -10.859375 C 6.117188 -10.171875 5.828125 -9.09375 5.828125 -7.625 L 5.828125 0 Z M 2.125 0 "/></g></g></g><g fill="#000000" fill-opacity="1"><g transform="translate(301.204454, 362.704651)"><g><path d="M 10.171875 -3.515625 L 11.125 -0.78125 C 10.726562 -0.445312 10.222656 -0.1875 9.609375 0 C 9.003906 0.1875 8.320312 0.28125 7.5625 0.28125 C 5.96875 0.28125 4.753906 -0.148438 3.921875 -1.015625 C 3.097656 -1.890625 2.6875 -3.15625 2.6875 -4.8125 L 2.6875 -11.8125 L 0.4375 -11.8125 L 0.4375 -14.75 L 2.6875 -14.75 L 2.6875 -17.625 L 6.390625 -18.21875 L 6.390625 -14.75 L 10.5625 -14.75 L 10.5625 -11.8125 L 6.390625 -11.8125 L 6.390625 -5.078125 C 6.390625 -4.347656 6.539062 -3.816406 6.84375 -3.484375 C 7.144531 -3.148438 7.582031 -2.984375 8.15625 -2.984375 C 8.820312 -2.984375 9.398438 -3.160156 9.890625 -3.515625 Z M 10.171875 -3.515625 "/></g></g></g></svg>